<svg width="97" height="96" viewBox="0 0 97 96" fill="none" xmlns="http://www.w3.org/2000/svg">
<path d="M52.5 92V68L44.1 60L40.1 77.6L12.5 72L14.1 64L33.3 68L39.7 35.6L32.5 38.4V52H24.5V33.2L40.3 26.4C42.6333 25.4 44.35 24.75 45.45 24.45C46.55 24.15 47.5667 24 48.5 24C49.9 24 51.2 24.3667 52.4 25.1C53.6 25.8333 54.5667 26.8 55.3 28L59.3 34.4C61.0333 37.2 63.3833 39.5 66.35 41.3C69.3167 43.1 72.7 44 76.5 44V52C72.1 52 67.9833 51.0833 64.15 49.25C60.3167 47.4167 57.1 45 54.5 42L52.1 54L60.5 62V92H52.5ZM54.5 22C52.3 22 50.4167 21.2167 48.85 19.65C47.2833 18.0833 46.5 16.2 46.5 14C46.5 11.8 47.2833 9.91667 48.85 8.35C50.4167 6.78333 52.3 6 54.5 6C56.7 6 58.5833 6.78333 60.15 8.35C61.7167 9.91667 62.5 11.8 62.5 14C62.5 16.2 61.7167 18.0833 60.15 19.65C58.5833 21.2167 56.7 22 54.5 22Z" fill="#685369"/>
</svg>
