<svg width="97" height="96" viewBox="0 0 97 96" fill="none" xmlns="http://www.w3.org/2000/svg">
<path d="M19.5 44C18.1 44 16.9167 43.5167 15.95 42.55C14.9833 41.5833 14.5 40.4 14.5 39C14.5 37.6 14.9833 36.4167 15.95 35.45C16.9167 34.4833 18.1 34 19.5 34C20.9 34 22.0833 34.4833 23.05 35.45C24.0167 36.4167 24.5 37.6 24.5 39C24.5 40.4 24.0167 41.5833 23.05 42.55C22.0833 43.5167 20.9 44 19.5 44ZM77.5 44C76.1 44 74.9167 43.5167 73.95 42.55C72.9833 41.5833 72.5 40.4 72.5 39C72.5 37.6 72.9833 36.4167 73.95 35.45C74.9167 34.4833 76.1 34 77.5 34C78.9 34 80.0833 34.4833 81.05 35.45C82.0167 36.4167 82.5 37.6 82.5 39C82.5 40.4 82.0167 41.5833 81.05 42.55C80.0833 43.5167 78.9 44 77.5 44ZM16.5 88H8.5V72H24.5C20.1 72 16.3333 70.4333 13.2 67.3C10.0667 64.1667 8.5 60.4 8.5 56H16.5C16.5 58.2 17.2833 60.0833 18.85 61.65C20.4167 63.2167 22.3 64 24.5 64V52H35.3L31.5 36.5C29.9667 30.3667 26.6833 25.4167 21.65 21.65C16.6167 17.8833 10.9 16 4.5 16V8C12.7 8 20.05 10.4333 26.55 15.3C33.05 20.1667 37.2667 26.5667 39.2 34.5L44.4 55C44.7333 56.2667 44.5 57.4167 43.7 58.45C42.9 59.4833 41.8333 60 40.5 60H32.5V72C32.5 74.2 31.7167 76.0833 30.15 77.65C28.5833 79.2167 26.7 80 24.5 80H16.5V88ZM88.5 88H80.5V80H72.5C70.3 80 68.4167 79.2167 66.85 77.65C65.2833 76.0833 64.5 74.2 64.5 72V60H56.5C55.1667 60 54.1 59.4667 53.3 58.4C52.5 57.3333 52.3 56.1333 52.7 54.8L57.8 34.5C59.9333 26.8333 64.1667 20.5 70.5 15.5C76.8333 10.5 84.1667 8 92.5 8V16C86.1667 16 80.4833 17.9 75.45 21.7C70.4167 25.5 67.1333 30.4333 65.6 36.5L61.7 52H72.5V64C74.7 64 76.5833 63.2167 78.15 61.65C79.7167 60.0833 80.5 58.2 80.5 56H88.5C88.5 60.4 86.9333 64.1667 83.8 67.3C80.6667 70.4333 76.9 72 72.5 72H88.5V88Z" fill="#80A4ED"/>
</svg>
